%TF.GenerationSoftware,KiCad,Pcbnew,(6.0.0)*%
%TF.CreationDate,2022-06-21T21:01:45-05:00*%
%TF.ProjectId,Teensey_cube4^3,5465656e-7365-4795-9f63-756265345e33,rev?*%
%TF.SameCoordinates,Original*%
%TF.FileFunction,Soldermask,Top*%
%TF.FilePolarity,Negative*%
%FSLAX46Y46*%
G04 Gerber Fmt 4.6, Leading zero omitted, Abs format (unit mm)*
G04 Created by KiCad (PCBNEW (6.0.0)) date 2022-06-21 21:01:45*
%MOMM*%
%LPD*%
G01*
G04 APERTURE LIST*
G04 Aperture macros list*
%AMRoundRect*
0 Rectangle with rounded corners*
0 $1 Rounding radius*
0 $2 $3 $4 $5 $6 $7 $8 $9 X,Y pos of 4 corners*
0 Add a 4 corners polygon primitive as box body*
4,1,4,$2,$3,$4,$5,$6,$7,$8,$9,$2,$3,0*
0 Add four circle primitives for the rounded corners*
1,1,$1+$1,$2,$3*
1,1,$1+$1,$4,$5*
1,1,$1+$1,$6,$7*
1,1,$1+$1,$8,$9*
0 Add four rect primitives between the rounded corners*
20,1,$1+$1,$2,$3,$4,$5,0*
20,1,$1+$1,$4,$5,$6,$7,0*
20,1,$1+$1,$6,$7,$8,$9,0*
20,1,$1+$1,$8,$9,$2,$3,0*%
G04 Aperture macros list end*
%ADD10C,0.150000*%
%ADD11C,2.000000*%
%ADD12C,3.200000*%
%ADD13C,1.700000*%
%ADD14C,4.000000*%
%ADD15C,2.200000*%
%ADD16C,1.600000*%
%ADD17R,1.600000X1.600000*%
%ADD18O,1.600000X1.600000*%
%ADD19RoundRect,0.250001X-0.949999X0.949999X-0.949999X-0.949999X0.949999X-0.949999X0.949999X0.949999X0*%
%ADD20C,2.400000*%
G04 APERTURE END LIST*
D10*
X111760000Y-77470000D02*
X110490000Y-74930000D01*
X110490000Y-74930000D02*
X113030000Y-74930000D01*
X113030000Y-74930000D02*
X111760000Y-77470000D01*
G36*
X111760000Y-77470000D02*
G01*
X110490000Y-74930000D01*
X113030000Y-74930000D01*
X111760000Y-77470000D01*
G37*
X111760000Y-77470000D02*
X110490000Y-74930000D01*
X113030000Y-74930000D01*
X111760000Y-77470000D01*
X125730000Y-60960000D02*
X123190000Y-62230000D01*
X123190000Y-62230000D02*
X123190000Y-59690000D01*
X123190000Y-59690000D02*
X125730000Y-60960000D01*
G36*
X125730000Y-60960000D02*
G01*
X123190000Y-62230000D01*
X123190000Y-59690000D01*
X125730000Y-60960000D01*
G37*
X125730000Y-60960000D02*
X123190000Y-62230000D01*
X123190000Y-59690000D01*
X125730000Y-60960000D01*
X196850000Y-74930000D02*
X195580000Y-72390000D01*
X195580000Y-72390000D02*
X198120000Y-72390000D01*
X198120000Y-72390000D02*
X196850000Y-74930000D01*
G36*
X196850000Y-74930000D02*
G01*
X195580000Y-72390000D01*
X198120000Y-72390000D01*
X196850000Y-74930000D01*
G37*
X196850000Y-74930000D02*
X195580000Y-72390000D01*
X198120000Y-72390000D01*
X196850000Y-74930000D01*
D11*
%TO.C,J6*%
X138430000Y-88900000D03*
%TD*%
%TO.C,J8*%
X189230000Y-88900000D03*
%TD*%
%TO.C,J3*%
X163830000Y-63500000D03*
%TD*%
D12*
%TO.C,REF\u002A\u002A*%
X210820000Y-139700000D03*
%TD*%
D11*
%TO.C,J19*%
X196850000Y-114300000D03*
%TD*%
%TO.C,J14*%
X138430000Y-139700000D03*
%TD*%
%TO.C,J13*%
X113030000Y-139700000D03*
%TD*%
%TO.C,J20*%
X196850000Y-139700000D03*
%TD*%
D12*
%TO.C,REF\u002A\u002A*%
X81280000Y-63500000D03*
%TD*%
D11*
%TO.C,J2*%
X138430000Y-63500000D03*
%TD*%
%TO.C,J7*%
X163830000Y-88900000D03*
%TD*%
%TO.C,J12*%
X189230000Y-114300000D03*
%TD*%
%TO.C,J16*%
X189230000Y-139700000D03*
%TD*%
%TO.C,J11*%
X163830000Y-114300000D03*
%TD*%
%TO.C,J15*%
X163830000Y-139700000D03*
%TD*%
%TO.C,J17*%
X196850000Y-63500000D03*
%TD*%
%TO.C,J18*%
X196850000Y-88900000D03*
%TD*%
%TO.C,J1*%
X113030000Y-63500000D03*
%TD*%
D12*
%TO.C,REF\u002A\u002A*%
X210820000Y-63500000D03*
%TD*%
D11*
%TO.C,J9*%
X113030000Y-114300000D03*
%TD*%
D13*
%TO.C,SW0*%
X100330000Y-121920000D03*
D14*
X100330000Y-127000000D03*
D13*
X100330000Y-132080000D03*
D15*
X95250000Y-124460000D03*
X97790000Y-130810000D03*
%TD*%
D12*
%TO.C,REF\u002A\u002A*%
X81280000Y-139700000D03*
%TD*%
D11*
%TO.C,J10*%
X138430000Y-114300000D03*
%TD*%
%TO.C,J5*%
X113030000Y-88900000D03*
%TD*%
%TO.C,J4*%
X189230000Y-63500000D03*
%TD*%
D16*
%TO.C,T0*%
X107950000Y-66040000D03*
X107950000Y-68580000D03*
X107950000Y-71120000D03*
X107950000Y-73660000D03*
X107950000Y-76200000D03*
X107950000Y-78740000D03*
X107950000Y-81280000D03*
X107950000Y-83820000D03*
X107950000Y-86360000D03*
X107950000Y-88900000D03*
X107950000Y-91440000D03*
X107950000Y-93980000D03*
X107950000Y-96520000D03*
X107950000Y-99060000D03*
X105410000Y-99060000D03*
X102870000Y-99060000D03*
X100330000Y-99060000D03*
X97790000Y-99060000D03*
X95250000Y-99060000D03*
X92710000Y-99060000D03*
X92710000Y-96520000D03*
X92710000Y-93980000D03*
X92710000Y-91440000D03*
X92710000Y-88900000D03*
X92710000Y-86360000D03*
X92710000Y-83820000D03*
X92710000Y-81280000D03*
X92710000Y-78740000D03*
X92710000Y-76200000D03*
X92710000Y-73660000D03*
X92710000Y-71120000D03*
X92710000Y-68580000D03*
X92710000Y-66040000D03*
X95250000Y-68580000D03*
X95250000Y-93980000D03*
X95250000Y-91440000D03*
X97790000Y-93980000D03*
X97790000Y-91440000D03*
X100330000Y-93980000D03*
X100330000Y-91440000D03*
X102870000Y-93980000D03*
X102870000Y-91440000D03*
X105410000Y-93980000D03*
X105410000Y-91440000D03*
%TD*%
D17*
%TO.C,U2*%
X167630000Y-97800000D03*
D18*
X170170000Y-97800000D03*
X172710000Y-97800000D03*
X175250000Y-97800000D03*
X177790000Y-97800000D03*
X180330000Y-97800000D03*
X182870000Y-97800000D03*
X185410000Y-97800000D03*
X185410000Y-105420000D03*
X182870000Y-105420000D03*
X180330000Y-105420000D03*
X177790000Y-105420000D03*
X175250000Y-105420000D03*
X172710000Y-105420000D03*
X170170000Y-105420000D03*
X167630000Y-105420000D03*
%TD*%
D17*
%TO.C,RN2*%
X160030000Y-129530000D03*
D18*
X157490000Y-129530000D03*
X154950000Y-129530000D03*
X152410000Y-129530000D03*
X149870000Y-129530000D03*
X147330000Y-129530000D03*
X144790000Y-129530000D03*
X142250000Y-129530000D03*
X142250000Y-121910000D03*
X144790000Y-121910000D03*
X147330000Y-121910000D03*
X149870000Y-121910000D03*
X152410000Y-121910000D03*
X154950000Y-121910000D03*
X157490000Y-121910000D03*
X160030000Y-121910000D03*
%TD*%
D17*
%TO.C,RN1*%
X160030000Y-81270000D03*
D18*
X157490000Y-81270000D03*
X154950000Y-81270000D03*
X152410000Y-81270000D03*
X149870000Y-81270000D03*
X147330000Y-81270000D03*
X144790000Y-81270000D03*
X142250000Y-81270000D03*
X142250000Y-73650000D03*
X144790000Y-73650000D03*
X147330000Y-73650000D03*
X149870000Y-73650000D03*
X152410000Y-73650000D03*
X154950000Y-73650000D03*
X157490000Y-73650000D03*
X160030000Y-73650000D03*
%TD*%
D19*
%TO.C,J0*%
X99812500Y-104700000D03*
D20*
X99812500Y-108660000D03*
%TD*%
D17*
%TO.C,U1*%
X142230000Y-97800000D03*
D18*
X144770000Y-97800000D03*
X147310000Y-97800000D03*
X149850000Y-97800000D03*
X152390000Y-97800000D03*
X154930000Y-97800000D03*
X157470000Y-97800000D03*
X160010000Y-97800000D03*
X160010000Y-105420000D03*
X157470000Y-105420000D03*
X154930000Y-105420000D03*
X152390000Y-105420000D03*
X149850000Y-105420000D03*
X147310000Y-105420000D03*
X144770000Y-105420000D03*
X142230000Y-105420000D03*
%TD*%
D17*
%TO.C,U0*%
X116830000Y-97800000D03*
D18*
X119370000Y-97800000D03*
X121910000Y-97800000D03*
X124450000Y-97800000D03*
X126990000Y-97800000D03*
X129530000Y-97800000D03*
X132070000Y-97800000D03*
X134610000Y-97800000D03*
X134610000Y-105420000D03*
X132070000Y-105420000D03*
X129530000Y-105420000D03*
X126990000Y-105420000D03*
X124450000Y-105420000D03*
X121910000Y-105420000D03*
X119370000Y-105420000D03*
X116830000Y-105420000D03*
%TD*%
M02*
