M48
; DRILL file {KiCad (6.0.0)} date Tue Jun 21 21:02:01 2022
; FORMAT={-:-/ absolute / metric / decimal}
; #@! TF.CreationDate,2022-06-21T21:02:01-05:00
; #@! TF.GenerationSoftware,Kicad,Pcbnew,(6.0.0)
; #@! TF.FileFunction,Plated,1,2,PTH
FMAT,2
METRIC
; #@! TA.AperFunction,Plated,PTH,ViaDrill
T1C0.400
; #@! TA.AperFunction,Plated,PTH,ComponentDrill
T2C0.800
; #@! TA.AperFunction,Plated,PTH,ComponentDrill
T3C1.000
; #@! TA.AperFunction,Plated,PTH,ComponentDrill
T4C1.100
; #@! TA.AperFunction,Plated,PTH,ComponentDrill
T5C1.400
; #@! TA.AperFunction,Plated,PTH,ComponentDrill
T6C1.500
%
G90
G05
T1
X110.49Y-90.17
X114.3Y-100.33
X116.84Y-99.2
X118.11Y-88.9
X127.0Y-107.935
X129.54Y-101.6
X129.54Y-107.935
X130.81Y-110.49
X132.08Y-107.935
X152.4Y-111.76
X154.94Y-110.49
X157.48Y-101.6
X162.56Y-105.41
X162.56Y-107.95
X162.56Y-111.76
X166.37Y-109.22
X168.91Y-101.6
X168.91Y-102.87
X168.91Y-110.49
X171.45Y-115.57
X173.99Y-128.27
X182.88Y-101.6
X186.69Y-68.58
X186.69Y-93.98
T2
X116.83Y-97.8
X116.83Y-105.42
X119.37Y-97.8
X119.37Y-105.42
X121.91Y-97.8
X121.91Y-105.42
X124.45Y-97.8
X124.45Y-105.42
X126.99Y-97.8
X126.99Y-105.42
X129.53Y-97.8
X129.53Y-105.42
X132.07Y-97.8
X132.07Y-105.42
X134.61Y-97.8
X134.61Y-105.42
X142.23Y-97.8
X142.23Y-105.42
X142.25Y-73.65
X142.25Y-81.27
X142.25Y-121.91
X142.25Y-129.53
X144.77Y-97.8
X144.77Y-105.42
X144.79Y-73.65
X144.79Y-81.27
X144.79Y-121.91
X144.79Y-129.53
X147.31Y-97.8
X147.31Y-105.42
X147.33Y-73.65
X147.33Y-81.27
X147.33Y-121.91
X147.33Y-129.53
X149.85Y-97.8
X149.85Y-105.42
X149.87Y-73.65
X149.87Y-81.27
X149.87Y-121.91
X149.87Y-129.53
X152.39Y-97.8
X152.39Y-105.42
X152.41Y-73.65
X152.41Y-81.27
X152.41Y-121.91
X152.41Y-129.53
X154.93Y-97.8
X154.93Y-105.42
X154.95Y-73.65
X154.95Y-81.27
X154.95Y-121.91
X154.95Y-129.53
X157.47Y-97.8
X157.47Y-105.42
X157.49Y-73.65
X157.49Y-81.27
X157.49Y-121.91
X157.49Y-129.53
X160.01Y-97.8
X160.01Y-105.42
X160.03Y-73.65
X160.03Y-81.27
X160.03Y-121.91
X160.03Y-129.53
X167.63Y-97.8
X167.63Y-105.42
X170.17Y-97.8
X170.17Y-105.42
X172.71Y-97.8
X172.71Y-105.42
X175.25Y-97.8
X175.25Y-105.42
X177.79Y-97.8
X177.79Y-105.42
X180.33Y-97.8
X180.33Y-105.42
X182.87Y-97.8
X182.87Y-105.42
X185.41Y-97.8
X185.41Y-105.42
T3
X113.03Y-63.5
X113.03Y-88.9
X113.03Y-114.3
X113.03Y-139.7
X138.43Y-63.5
X138.43Y-88.9
X138.43Y-114.3
X138.43Y-139.7
X163.83Y-63.5
X163.83Y-88.9
X163.83Y-114.3
X163.83Y-139.7
X189.23Y-63.5
X189.23Y-88.9
X189.23Y-114.3
X189.23Y-139.7
X196.85Y-63.5
X196.85Y-88.9
X196.85Y-114.3
X196.85Y-139.7
T4
X92.71Y-66.04
X92.71Y-68.58
X92.71Y-71.12
X92.71Y-73.66
X92.71Y-76.2
X92.71Y-78.74
X92.71Y-81.28
X92.71Y-83.82
X92.71Y-86.36
X92.71Y-88.9
X92.71Y-91.44
X92.71Y-93.98
X92.71Y-96.52
X92.71Y-99.06
X95.25Y-68.58
X95.25Y-91.44
X95.25Y-93.98
X95.25Y-99.06
X97.79Y-91.44
X97.79Y-93.98
X97.79Y-99.06
X100.33Y-91.44
X100.33Y-93.98
X100.33Y-99.06
X102.87Y-91.44
X102.87Y-93.98
X102.87Y-99.06
X105.41Y-91.44
X105.41Y-93.98
X105.41Y-99.06
X107.95Y-66.04
X107.95Y-68.58
X107.95Y-71.12
X107.95Y-73.66
X107.95Y-76.2
X107.95Y-78.74
X107.95Y-81.28
X107.95Y-83.82
X107.95Y-86.36
X107.95Y-88.9
X107.95Y-91.44
X107.95Y-93.98
X107.95Y-96.52
X107.95Y-99.06
T5
X99.812Y-104.7
X99.812Y-108.66
T6
X95.25Y-124.46
X97.79Y-130.81
T0
M30
