%TF.GenerationSoftware,KiCad,Pcbnew,(6.0.0)*%
%TF.CreationDate,2022-06-21T21:01:45-05:00*%
%TF.ProjectId,Teensey_cube4^3,5465656e-7365-4795-9f63-756265345e33,rev?*%
%TF.SameCoordinates,Original*%
%TF.FileFunction,Legend,Bot*%
%TF.FilePolarity,Positive*%
%FSLAX46Y46*%
G04 Gerber Fmt 4.6, Leading zero omitted, Abs format (unit mm)*
G04 Created by KiCad (PCBNEW (6.0.0)) date 2022-06-21 21:01:45*
%MOMM*%
%LPD*%
G01*
G04 APERTURE LIST*
%ADD10C,0.150000*%
%ADD11C,0.254000*%
%ADD12C,0.100000*%
%ADD13C,0.120000*%
G04 APERTURE END LIST*
D10*
X82550000Y-86360000D02*
X77470000Y-86360000D01*
X77470000Y-86360000D02*
X77470000Y-101600000D01*
X77470000Y-101600000D02*
X82550000Y-101600000D01*
X82550000Y-101600000D02*
X82550000Y-86360000D01*
X77470000Y-101600000D02*
X82550000Y-101600000D01*
X82550000Y-101600000D02*
X82550000Y-101600000D01*
X82550000Y-101600000D02*
X77470000Y-101600000D01*
X77470000Y-101600000D02*
X77470000Y-101600000D01*
X77470000Y-135890000D02*
X82550000Y-135890000D01*
X82550000Y-135890000D02*
X82550000Y-104140000D01*
X82550000Y-104140000D02*
X77470000Y-104140000D01*
X77470000Y-104140000D02*
X77470000Y-135890000D01*
X83367619Y-72429523D02*
X84367619Y-72429523D01*
X83653333Y-72096190D01*
X84367619Y-71762857D01*
X83367619Y-71762857D01*
X83415238Y-71334285D02*
X83367619Y-71191428D01*
X83367619Y-70953333D01*
X83415238Y-70858095D01*
X83462857Y-70810476D01*
X83558095Y-70762857D01*
X83653333Y-70762857D01*
X83748571Y-70810476D01*
X83796190Y-70858095D01*
X83843809Y-70953333D01*
X83891428Y-71143809D01*
X83939047Y-71239047D01*
X83986666Y-71286666D01*
X84081904Y-71334285D01*
X84177142Y-71334285D01*
X84272380Y-71286666D01*
X84320000Y-71239047D01*
X84367619Y-71143809D01*
X84367619Y-70905714D01*
X84320000Y-70762857D01*
X83891428Y-70000952D02*
X83843809Y-69858095D01*
X83796190Y-69810476D01*
X83700952Y-69762857D01*
X83558095Y-69762857D01*
X83462857Y-69810476D01*
X83415238Y-69858095D01*
X83367619Y-69953333D01*
X83367619Y-70334285D01*
X84367619Y-70334285D01*
X84367619Y-70000952D01*
X84320000Y-69905714D01*
X84272380Y-69858095D01*
X84177142Y-69810476D01*
X84081904Y-69810476D01*
X83986666Y-69858095D01*
X83939047Y-69905714D01*
X83891428Y-70000952D01*
X83891428Y-70334285D01*
D11*
X83940952Y-100450952D02*
X86480952Y-100450952D01*
X86480952Y-99483333D01*
X86360000Y-99241428D01*
X86239047Y-99120476D01*
X85997142Y-98999523D01*
X85634285Y-98999523D01*
X85392380Y-99120476D01*
X85271428Y-99241428D01*
X85150476Y-99483333D01*
X85150476Y-100450952D01*
X83940952Y-96701428D02*
X83940952Y-97910952D01*
X86480952Y-97910952D01*
X84666666Y-95975714D02*
X84666666Y-94766190D01*
X83940952Y-96217619D02*
X86480952Y-95370952D01*
X83940952Y-94524285D01*
X83940952Y-93677619D02*
X86480952Y-93677619D01*
X83940952Y-92226190D01*
X86480952Y-92226190D01*
X85271428Y-91016666D02*
X85271428Y-90170000D01*
X83940952Y-89807142D02*
X83940952Y-91016666D01*
X86480952Y-91016666D01*
X86480952Y-89807142D01*
X84061904Y-88839523D02*
X83940952Y-88476666D01*
X83940952Y-87871904D01*
X84061904Y-87630000D01*
X84182857Y-87509047D01*
X84424761Y-87388095D01*
X84666666Y-87388095D01*
X84908571Y-87509047D01*
X85029523Y-87630000D01*
X85150476Y-87871904D01*
X85271428Y-88355714D01*
X85392380Y-88597619D01*
X85513333Y-88718571D01*
X85755238Y-88839523D01*
X85997142Y-88839523D01*
X86239047Y-88718571D01*
X86360000Y-88597619D01*
X86480952Y-88355714D01*
X86480952Y-87750952D01*
X86360000Y-87388095D01*
X82096428Y-134620000D02*
X82096428Y-134257142D01*
X81915000Y-133894285D01*
X81733571Y-133712857D01*
X81370714Y-133531428D01*
X80645000Y-133350000D01*
X79737857Y-133350000D01*
X79012142Y-133531428D01*
X78649285Y-133712857D01*
X78467857Y-133894285D01*
X78286428Y-134257142D01*
X78286428Y-134620000D01*
X78467857Y-134982857D01*
X78649285Y-135164285D01*
X79012142Y-135345714D01*
X79737857Y-135527142D01*
X80645000Y-135527142D01*
X81370714Y-135345714D01*
X81733571Y-135164285D01*
X81915000Y-134982857D01*
X82096428Y-134620000D01*
X82096428Y-130991428D02*
X82096428Y-130628571D01*
X81915000Y-130265714D01*
X81733571Y-130084285D01*
X81370714Y-129902857D01*
X80645000Y-129721428D01*
X79737857Y-129721428D01*
X79012142Y-129902857D01*
X78649285Y-130084285D01*
X78467857Y-130265714D01*
X78286428Y-130628571D01*
X78286428Y-130991428D01*
X78467857Y-131354285D01*
X78649285Y-131535714D01*
X79012142Y-131717142D01*
X79737857Y-131898571D01*
X80645000Y-131898571D01*
X81370714Y-131717142D01*
X81733571Y-131535714D01*
X81915000Y-131354285D01*
X82096428Y-130991428D01*
X82096428Y-127362857D02*
X82096428Y-127000000D01*
X81915000Y-126637142D01*
X81733571Y-126455714D01*
X81370714Y-126274285D01*
X80645000Y-126092857D01*
X79737857Y-126092857D01*
X79012142Y-126274285D01*
X78649285Y-126455714D01*
X78467857Y-126637142D01*
X78286428Y-127000000D01*
X78286428Y-127362857D01*
X78467857Y-127725714D01*
X78649285Y-127907142D01*
X79012142Y-128088571D01*
X79737857Y-128270000D01*
X80645000Y-128270000D01*
X81370714Y-128088571D01*
X81733571Y-127907142D01*
X81915000Y-127725714D01*
X82096428Y-127362857D01*
X82096428Y-123734285D02*
X82096428Y-123371428D01*
X81915000Y-123008571D01*
X81733571Y-122827142D01*
X81370714Y-122645714D01*
X80645000Y-122464285D01*
X79737857Y-122464285D01*
X79012142Y-122645714D01*
X78649285Y-122827142D01*
X78467857Y-123008571D01*
X78286428Y-123371428D01*
X78286428Y-123734285D01*
X78467857Y-124097142D01*
X78649285Y-124278571D01*
X79012142Y-124460000D01*
X79737857Y-124641428D01*
X80645000Y-124641428D01*
X81370714Y-124460000D01*
X81733571Y-124278571D01*
X81915000Y-124097142D01*
X82096428Y-123734285D01*
X82096428Y-117202857D02*
X82096428Y-116840000D01*
X81915000Y-116477142D01*
X81733571Y-116295714D01*
X81370714Y-116114285D01*
X80645000Y-115932857D01*
X79737857Y-115932857D01*
X79012142Y-116114285D01*
X78649285Y-116295714D01*
X78467857Y-116477142D01*
X78286428Y-116840000D01*
X78286428Y-117202857D01*
X78467857Y-117565714D01*
X78649285Y-117747142D01*
X79012142Y-117928571D01*
X79737857Y-118110000D01*
X80645000Y-118110000D01*
X81370714Y-117928571D01*
X81733571Y-117747142D01*
X81915000Y-117565714D01*
X82096428Y-117202857D01*
X82096428Y-113574285D02*
X82096428Y-113211428D01*
X81915000Y-112848571D01*
X81733571Y-112667142D01*
X81370714Y-112485714D01*
X80645000Y-112304285D01*
X79737857Y-112304285D01*
X79012142Y-112485714D01*
X78649285Y-112667142D01*
X78467857Y-112848571D01*
X78286428Y-113211428D01*
X78286428Y-113574285D01*
X78467857Y-113937142D01*
X78649285Y-114118571D01*
X79012142Y-114300000D01*
X79737857Y-114481428D01*
X80645000Y-114481428D01*
X81370714Y-114300000D01*
X81733571Y-114118571D01*
X81915000Y-113937142D01*
X82096428Y-113574285D01*
X82096428Y-109945714D02*
X82096428Y-109582857D01*
X81915000Y-109220000D01*
X81733571Y-109038571D01*
X81370714Y-108857142D01*
X80645000Y-108675714D01*
X79737857Y-108675714D01*
X79012142Y-108857142D01*
X78649285Y-109038571D01*
X78467857Y-109220000D01*
X78286428Y-109582857D01*
X78286428Y-109945714D01*
X78467857Y-110308571D01*
X78649285Y-110490000D01*
X79012142Y-110671428D01*
X79737857Y-110852857D01*
X80645000Y-110852857D01*
X81370714Y-110671428D01*
X81733571Y-110490000D01*
X81915000Y-110308571D01*
X82096428Y-109945714D01*
X82096428Y-106317142D02*
X82096428Y-105954285D01*
X81915000Y-105591428D01*
X81733571Y-105410000D01*
X81370714Y-105228571D01*
X80645000Y-105047142D01*
X79737857Y-105047142D01*
X79012142Y-105228571D01*
X78649285Y-105410000D01*
X78467857Y-105591428D01*
X78286428Y-105954285D01*
X78286428Y-106317142D01*
X78467857Y-106680000D01*
X78649285Y-106861428D01*
X79012142Y-107042857D01*
X79737857Y-107224285D01*
X80645000Y-107224285D01*
X81370714Y-107042857D01*
X81733571Y-106861428D01*
X81915000Y-106680000D01*
X82096428Y-106317142D01*
X82096428Y-99785714D02*
X82096428Y-99422857D01*
X81915000Y-99060000D01*
X81733571Y-98878571D01*
X81370714Y-98697142D01*
X80645000Y-98515714D01*
X79737857Y-98515714D01*
X79012142Y-98697142D01*
X78649285Y-98878571D01*
X78467857Y-99060000D01*
X78286428Y-99422857D01*
X78286428Y-99785714D01*
X78467857Y-100148571D01*
X78649285Y-100330000D01*
X79012142Y-100511428D01*
X79737857Y-100692857D01*
X80645000Y-100692857D01*
X81370714Y-100511428D01*
X81733571Y-100330000D01*
X81915000Y-100148571D01*
X82096428Y-99785714D01*
X82096428Y-96157142D02*
X82096428Y-95794285D01*
X81915000Y-95431428D01*
X81733571Y-95250000D01*
X81370714Y-95068571D01*
X80645000Y-94887142D01*
X79737857Y-94887142D01*
X79012142Y-95068571D01*
X78649285Y-95250000D01*
X78467857Y-95431428D01*
X78286428Y-95794285D01*
X78286428Y-96157142D01*
X78467857Y-96520000D01*
X78649285Y-96701428D01*
X79012142Y-96882857D01*
X79737857Y-97064285D01*
X80645000Y-97064285D01*
X81370714Y-96882857D01*
X81733571Y-96701428D01*
X81915000Y-96520000D01*
X82096428Y-96157142D01*
X82096428Y-92528571D02*
X82096428Y-92165714D01*
X81915000Y-91802857D01*
X81733571Y-91621428D01*
X81370714Y-91440000D01*
X80645000Y-91258571D01*
X79737857Y-91258571D01*
X79012142Y-91440000D01*
X78649285Y-91621428D01*
X78467857Y-91802857D01*
X78286428Y-92165714D01*
X78286428Y-92528571D01*
X78467857Y-92891428D01*
X78649285Y-93072857D01*
X79012142Y-93254285D01*
X79737857Y-93435714D01*
X80645000Y-93435714D01*
X81370714Y-93254285D01*
X81733571Y-93072857D01*
X81915000Y-92891428D01*
X82096428Y-92528571D01*
X82096428Y-88900000D02*
X82096428Y-88537142D01*
X81915000Y-88174285D01*
X81733571Y-87992857D01*
X81370714Y-87811428D01*
X80645000Y-87630000D01*
X79737857Y-87630000D01*
X79012142Y-87811428D01*
X78649285Y-87992857D01*
X78467857Y-88174285D01*
X78286428Y-88537142D01*
X78286428Y-88900000D01*
X78467857Y-89262857D01*
X78649285Y-89444285D01*
X79012142Y-89625714D01*
X79737857Y-89807142D01*
X80645000Y-89807142D01*
X81370714Y-89625714D01*
X81733571Y-89444285D01*
X81915000Y-89262857D01*
X82096428Y-88900000D01*
X82096428Y-83457142D02*
X78286428Y-80917142D01*
X82096428Y-80917142D02*
X78286428Y-83457142D01*
X82096428Y-79828571D02*
X78286428Y-77288571D01*
X82096428Y-77288571D02*
X78286428Y-79828571D01*
X82096428Y-76200000D02*
X78286428Y-73660000D01*
X82096428Y-73660000D02*
X78286428Y-76200000D01*
X82096428Y-72571428D02*
X78286428Y-70031428D01*
X82096428Y-70031428D02*
X78286428Y-72571428D01*
X84182857Y-125004285D02*
X84061904Y-125125238D01*
X83940952Y-125488095D01*
X83940952Y-125730000D01*
X84061904Y-126092857D01*
X84303809Y-126334761D01*
X84545714Y-126455714D01*
X85029523Y-126576666D01*
X85392380Y-126576666D01*
X85876190Y-126455714D01*
X86118095Y-126334761D01*
X86360000Y-126092857D01*
X86480952Y-125730000D01*
X86480952Y-125488095D01*
X86360000Y-125125238D01*
X86239047Y-125004285D01*
X86480952Y-123431904D02*
X86480952Y-122948095D01*
X86360000Y-122706190D01*
X86118095Y-122464285D01*
X85634285Y-122343333D01*
X84787619Y-122343333D01*
X84303809Y-122464285D01*
X84061904Y-122706190D01*
X83940952Y-122948095D01*
X83940952Y-123431904D01*
X84061904Y-123673809D01*
X84303809Y-123915714D01*
X84787619Y-124036666D01*
X85634285Y-124036666D01*
X86118095Y-123915714D01*
X86360000Y-123673809D01*
X86480952Y-123431904D01*
X83940952Y-120045238D02*
X83940952Y-121254761D01*
X86480952Y-121254761D01*
X86480952Y-119198571D02*
X84424761Y-119198571D01*
X84182857Y-119077619D01*
X84061904Y-118956666D01*
X83940952Y-118714761D01*
X83940952Y-118230952D01*
X84061904Y-117989047D01*
X84182857Y-117868095D01*
X84424761Y-117747142D01*
X86480952Y-117747142D01*
X83940952Y-116537619D02*
X86480952Y-116537619D01*
X84666666Y-115690952D01*
X86480952Y-114844285D01*
X83940952Y-114844285D01*
X83940952Y-113634761D02*
X86480952Y-113634761D01*
X83940952Y-112183333D01*
X86480952Y-112183333D01*
X84061904Y-111094761D02*
X83940952Y-110731904D01*
X83940952Y-110127142D01*
X84061904Y-109885238D01*
X84182857Y-109764285D01*
X84424761Y-109643333D01*
X84666666Y-109643333D01*
X84908571Y-109764285D01*
X85029523Y-109885238D01*
X85150476Y-110127142D01*
X85271428Y-110610952D01*
X85392380Y-110852857D01*
X85513333Y-110973809D01*
X85755238Y-111094761D01*
X85997142Y-111094761D01*
X86239047Y-110973809D01*
X86360000Y-110852857D01*
X86480952Y-110610952D01*
X86480952Y-110006190D01*
X86360000Y-109643333D01*
D10*
%TO.C,T0*%
X89622380Y-81788095D02*
X89622380Y-82359523D01*
X90622380Y-82073809D02*
X89622380Y-82073809D01*
X89622380Y-82883333D02*
X89622380Y-82978571D01*
X89670000Y-83073809D01*
X89717619Y-83121428D01*
X89812857Y-83169047D01*
X90003333Y-83216666D01*
X90241428Y-83216666D01*
X90431904Y-83169047D01*
X90527142Y-83121428D01*
X90574761Y-83073809D01*
X90622380Y-82978571D01*
X90622380Y-82883333D01*
X90574761Y-82788095D01*
X90527142Y-82740476D01*
X90431904Y-82692857D01*
X90241428Y-82645238D01*
X90003333Y-82645238D01*
X89812857Y-82692857D01*
X89717619Y-82740476D01*
X89670000Y-82788095D01*
X89622380Y-82883333D01*
X101730000Y-84644666D02*
X101730000Y-83944666D01*
X101563333Y-83944666D01*
X101463333Y-83978000D01*
X101396666Y-84044666D01*
X101363333Y-84111333D01*
X101330000Y-84244666D01*
X101330000Y-84344666D01*
X101363333Y-84478000D01*
X101396666Y-84544666D01*
X101463333Y-84611333D01*
X101563333Y-84644666D01*
X101730000Y-84644666D01*
X101130000Y-83944666D02*
X100896666Y-84644666D01*
X100663333Y-83944666D01*
X100096666Y-84644666D02*
X100430000Y-84644666D01*
X100430000Y-83944666D01*
X99563333Y-83944666D02*
X99696666Y-83944666D01*
X99763333Y-83978000D01*
X99796666Y-84011333D01*
X99863333Y-84111333D01*
X99896666Y-84244666D01*
X99896666Y-84511333D01*
X99863333Y-84578000D01*
X99830000Y-84611333D01*
X99763333Y-84644666D01*
X99630000Y-84644666D01*
X99563333Y-84611333D01*
X99530000Y-84578000D01*
X99496666Y-84511333D01*
X99496666Y-84344666D01*
X99530000Y-84278000D01*
X99563333Y-84244666D01*
X99630000Y-84211333D01*
X99763333Y-84211333D01*
X99830000Y-84244666D01*
X99863333Y-84278000D01*
X99896666Y-84344666D01*
X99230000Y-84444666D02*
X98896666Y-84444666D01*
X99296666Y-84644666D02*
X99063333Y-83944666D01*
X98830000Y-84644666D01*
X103413333Y-83120666D02*
X103413333Y-82420666D01*
X103180000Y-82920666D01*
X102946666Y-82420666D01*
X102946666Y-83120666D01*
X102613333Y-83120666D02*
X102613333Y-82420666D01*
X102280000Y-83120666D02*
X102280000Y-82420666D01*
X102046666Y-82920666D01*
X101813333Y-82420666D01*
X101813333Y-83120666D01*
X101546666Y-82420666D02*
X101080000Y-83120666D01*
X101080000Y-82420666D02*
X101546666Y-83120666D01*
X100413333Y-83120666D02*
X100646666Y-82787333D01*
X100813333Y-83120666D02*
X100813333Y-82420666D01*
X100546666Y-82420666D01*
X100480000Y-82454000D01*
X100446666Y-82487333D01*
X100413333Y-82554000D01*
X100413333Y-82654000D01*
X100446666Y-82720666D01*
X100480000Y-82754000D01*
X100546666Y-82787333D01*
X100813333Y-82787333D01*
X100213333Y-82420666D02*
X99813333Y-82420666D01*
X100013333Y-83120666D02*
X100013333Y-82420666D01*
X99213333Y-83120666D02*
X99613333Y-83120666D01*
X99413333Y-83120666D02*
X99413333Y-82420666D01*
X99480000Y-82520666D01*
X99546666Y-82587333D01*
X99613333Y-82620666D01*
X98780000Y-82420666D02*
X98713333Y-82420666D01*
X98646666Y-82454000D01*
X98613333Y-82487333D01*
X98580000Y-82554000D01*
X98546666Y-82687333D01*
X98546666Y-82854000D01*
X98580000Y-82987333D01*
X98613333Y-83054000D01*
X98646666Y-83087333D01*
X98713333Y-83120666D01*
X98780000Y-83120666D01*
X98846666Y-83087333D01*
X98880000Y-83054000D01*
X98913333Y-82987333D01*
X98946666Y-82854000D01*
X98946666Y-82687333D01*
X98913333Y-82554000D01*
X98880000Y-82487333D01*
X98846666Y-82454000D01*
X98780000Y-82420666D01*
X97946666Y-82420666D02*
X98080000Y-82420666D01*
X98146666Y-82454000D01*
X98180000Y-82487333D01*
X98246666Y-82587333D01*
X98280000Y-82720666D01*
X98280000Y-82987333D01*
X98246666Y-83054000D01*
X98213333Y-83087333D01*
X98146666Y-83120666D01*
X98013333Y-83120666D01*
X97946666Y-83087333D01*
X97913333Y-83054000D01*
X97880000Y-82987333D01*
X97880000Y-82820666D01*
X97913333Y-82754000D01*
X97946666Y-82720666D01*
X98013333Y-82687333D01*
X98146666Y-82687333D01*
X98213333Y-82720666D01*
X98246666Y-82754000D01*
X98280000Y-82820666D01*
X97613333Y-82487333D02*
X97580000Y-82454000D01*
X97513333Y-82420666D01*
X97346666Y-82420666D01*
X97280000Y-82454000D01*
X97246666Y-82487333D01*
X97213333Y-82554000D01*
X97213333Y-82620666D01*
X97246666Y-82720666D01*
X97646666Y-83120666D01*
X97213333Y-83120666D01*
%TO.C,Q3*%
X177895238Y-76167619D02*
X177990476Y-76120000D01*
X178085714Y-76024761D01*
X178228571Y-75881904D01*
X178323809Y-75834285D01*
X178419047Y-75834285D01*
X178371428Y-76072380D02*
X178466666Y-76024761D01*
X178561904Y-75929523D01*
X178609523Y-75739047D01*
X178609523Y-75405714D01*
X178561904Y-75215238D01*
X178466666Y-75120000D01*
X178371428Y-75072380D01*
X178180952Y-75072380D01*
X178085714Y-75120000D01*
X177990476Y-75215238D01*
X177942857Y-75405714D01*
X177942857Y-75739047D01*
X177990476Y-75929523D01*
X178085714Y-76024761D01*
X178180952Y-76072380D01*
X178371428Y-76072380D01*
X177609523Y-75072380D02*
X176990476Y-75072380D01*
X177323809Y-75453333D01*
X177180952Y-75453333D01*
X177085714Y-75500952D01*
X177038095Y-75548571D01*
X176990476Y-75643809D01*
X176990476Y-75881904D01*
X177038095Y-75977142D01*
X177085714Y-76024761D01*
X177180952Y-76072380D01*
X177466666Y-76072380D01*
X177561904Y-76024761D01*
X177609523Y-75977142D01*
%TO.C,U2*%
X164752380Y-100848095D02*
X165561904Y-100848095D01*
X165657142Y-100895714D01*
X165704761Y-100943333D01*
X165752380Y-101038571D01*
X165752380Y-101229047D01*
X165704761Y-101324285D01*
X165657142Y-101371904D01*
X165561904Y-101419523D01*
X164752380Y-101419523D01*
X164847619Y-101848095D02*
X164800000Y-101895714D01*
X164752380Y-101990952D01*
X164752380Y-102229047D01*
X164800000Y-102324285D01*
X164847619Y-102371904D01*
X164942857Y-102419523D01*
X165038095Y-102419523D01*
X165180952Y-102371904D01*
X165752380Y-101800476D01*
X165752380Y-102419523D01*
%TO.C,Q1*%
X177895238Y-125697619D02*
X177990476Y-125650000D01*
X178085714Y-125554761D01*
X178228571Y-125411904D01*
X178323809Y-125364285D01*
X178419047Y-125364285D01*
X178371428Y-125602380D02*
X178466666Y-125554761D01*
X178561904Y-125459523D01*
X178609523Y-125269047D01*
X178609523Y-124935714D01*
X178561904Y-124745238D01*
X178466666Y-124650000D01*
X178371428Y-124602380D01*
X178180952Y-124602380D01*
X178085714Y-124650000D01*
X177990476Y-124745238D01*
X177942857Y-124935714D01*
X177942857Y-125269047D01*
X177990476Y-125459523D01*
X178085714Y-125554761D01*
X178180952Y-125602380D01*
X178371428Y-125602380D01*
X176990476Y-125602380D02*
X177561904Y-125602380D01*
X177276190Y-125602380D02*
X177276190Y-124602380D01*
X177371428Y-124745238D01*
X177466666Y-124840476D01*
X177561904Y-124888095D01*
%TO.C,RN2*%
X162812380Y-125029523D02*
X162336190Y-124696190D01*
X162812380Y-124458095D02*
X161812380Y-124458095D01*
X161812380Y-124839047D01*
X161860000Y-124934285D01*
X161907619Y-124981904D01*
X162002857Y-125029523D01*
X162145714Y-125029523D01*
X162240952Y-124981904D01*
X162288571Y-124934285D01*
X162336190Y-124839047D01*
X162336190Y-124458095D01*
X162812380Y-125458095D02*
X161812380Y-125458095D01*
X162812380Y-126029523D01*
X161812380Y-126029523D01*
X161907619Y-126458095D02*
X161860000Y-126505714D01*
X161812380Y-126600952D01*
X161812380Y-126839047D01*
X161860000Y-126934285D01*
X161907619Y-126981904D01*
X162002857Y-127029523D01*
X162098095Y-127029523D01*
X162240952Y-126981904D01*
X162812380Y-126410476D01*
X162812380Y-127029523D01*
%TO.C,REF\u002A\u002A*%
X201430000Y-86939999D02*
X201382380Y-86844761D01*
X201382380Y-86701904D01*
X201430000Y-86559047D01*
X201525238Y-86463809D01*
X201620476Y-86416190D01*
X201810952Y-86368571D01*
X201953809Y-86368571D01*
X202144285Y-86416190D01*
X202239523Y-86463809D01*
X202334761Y-86559047D01*
X202382380Y-86701904D01*
X202382380Y-86797142D01*
X202334761Y-86939999D01*
X202287142Y-86987618D01*
X201953809Y-86987618D01*
X201953809Y-86797142D01*
X202382380Y-87844761D02*
X201858571Y-87844761D01*
X201763333Y-87797142D01*
X201715714Y-87701904D01*
X201715714Y-87511428D01*
X201763333Y-87416190D01*
X202334761Y-87844761D02*
X202382380Y-87749523D01*
X202382380Y-87511428D01*
X202334761Y-87416190D01*
X202239523Y-87368571D01*
X202144285Y-87368571D01*
X202049047Y-87416190D01*
X202001428Y-87511428D01*
X202001428Y-87749523D01*
X201953809Y-87844761D01*
X201715714Y-88320952D02*
X202382380Y-88320952D01*
X201810952Y-88320952D02*
X201763333Y-88368571D01*
X201715714Y-88463809D01*
X201715714Y-88606666D01*
X201763333Y-88701904D01*
X201858571Y-88749523D01*
X202382380Y-88749523D01*
X201715714Y-89225713D02*
X202382380Y-89225713D01*
X201810952Y-89225713D02*
X201763333Y-89273332D01*
X201715714Y-89368571D01*
X201715714Y-89511428D01*
X201763333Y-89606666D01*
X201858571Y-89654285D01*
X202382380Y-89654285D01*
X202382380Y-90273332D02*
X202334761Y-90178094D01*
X202287142Y-90130475D01*
X202191904Y-90082856D01*
X201906190Y-90082856D01*
X201810952Y-90130475D01*
X201763333Y-90178094D01*
X201715714Y-90273332D01*
X201715714Y-90416190D01*
X201763333Y-90511428D01*
X201810952Y-90559047D01*
X201906190Y-90606666D01*
X202191904Y-90606666D01*
X202287142Y-90559047D01*
X202334761Y-90511428D01*
X202382380Y-90416190D01*
X202382380Y-90273332D01*
X201715714Y-91035237D02*
X202382380Y-91035237D01*
X201810952Y-91035237D02*
X201763333Y-91082856D01*
X201715714Y-91178094D01*
X201715714Y-91320952D01*
X201763333Y-91416190D01*
X201858571Y-91463809D01*
X202382380Y-91463809D01*
X201858571Y-93035237D02*
X201906190Y-93178094D01*
X201953809Y-93225713D01*
X202049047Y-93273332D01*
X202191904Y-93273332D01*
X202287142Y-93225713D01*
X202334761Y-93178094D01*
X202382380Y-93082856D01*
X202382380Y-92701904D01*
X201382380Y-92701904D01*
X201382380Y-93035237D01*
X201430000Y-93130475D01*
X201477619Y-93178094D01*
X201572857Y-93225713D01*
X201668095Y-93225713D01*
X201763333Y-93178094D01*
X201810952Y-93130475D01*
X201858571Y-93035237D01*
X201858571Y-92701904D01*
X202382380Y-93701904D02*
X201715714Y-93701904D01*
X201382380Y-93701904D02*
X201430000Y-93654285D01*
X201477619Y-93701904D01*
X201430000Y-93749523D01*
X201382380Y-93701904D01*
X201477619Y-93701904D01*
X202382380Y-94178094D02*
X201715714Y-94178094D01*
X201906190Y-94178094D02*
X201810952Y-94225713D01*
X201763333Y-94273332D01*
X201715714Y-94368571D01*
X201715714Y-94463809D01*
X202382380Y-95225713D02*
X201382380Y-95225713D01*
X202334761Y-95225713D02*
X202382380Y-95130475D01*
X202382380Y-94939999D01*
X202334761Y-94844761D01*
X202287142Y-94797142D01*
X202191904Y-94749523D01*
X201906190Y-94749523D01*
X201810952Y-94797142D01*
X201763333Y-94844761D01*
X201715714Y-94939999D01*
X201715714Y-95130475D01*
X201763333Y-95225713D01*
X205525714Y-86273341D02*
X206192380Y-86273341D01*
X205144761Y-86035246D02*
X205859047Y-85797151D01*
X205859047Y-86416198D01*
X205287619Y-86654293D02*
X205144761Y-86844770D01*
X205287619Y-87035246D01*
X205192380Y-87273341D02*
X205192380Y-87892389D01*
X205573333Y-87559055D01*
X205573333Y-87701912D01*
X205620952Y-87797151D01*
X205668571Y-87844770D01*
X205763809Y-87892389D01*
X206001904Y-87892389D01*
X206097142Y-87844770D01*
X206144761Y-87797151D01*
X206192380Y-87701912D01*
X206192380Y-87416198D01*
X206144761Y-87320960D01*
X206097142Y-87273341D01*
X206192380Y-89559055D02*
X206192380Y-89082865D01*
X205192380Y-89082865D01*
X205668571Y-89892389D02*
X205668571Y-90225722D01*
X206192380Y-90368579D02*
X206192380Y-89892389D01*
X205192380Y-89892389D01*
X205192380Y-90368579D01*
X206192380Y-90797151D02*
X205192380Y-90797151D01*
X205192380Y-91035246D01*
X205240000Y-91178103D01*
X205335238Y-91273341D01*
X205430476Y-91320960D01*
X205620952Y-91368579D01*
X205763809Y-91368579D01*
X205954285Y-91320960D01*
X206049523Y-91273341D01*
X206144761Y-91178103D01*
X206192380Y-91035246D01*
X206192380Y-90797151D01*
X206097142Y-93130484D02*
X206144761Y-93082865D01*
X206192380Y-92940008D01*
X206192380Y-92844770D01*
X206144761Y-92701912D01*
X206049523Y-92606674D01*
X205954285Y-92559055D01*
X205763809Y-92511436D01*
X205620952Y-92511436D01*
X205430476Y-92559055D01*
X205335238Y-92606674D01*
X205240000Y-92701912D01*
X205192380Y-92844770D01*
X205192380Y-92940008D01*
X205240000Y-93082865D01*
X205287619Y-93130484D01*
X205525714Y-93987627D02*
X206192380Y-93987627D01*
X205525714Y-93559055D02*
X206049523Y-93559055D01*
X206144761Y-93606674D01*
X206192380Y-93701912D01*
X206192380Y-93844770D01*
X206144761Y-93940008D01*
X206097142Y-93987627D01*
X206192380Y-94463817D02*
X205192380Y-94463817D01*
X205573333Y-94463817D02*
X205525714Y-94559055D01*
X205525714Y-94749531D01*
X205573333Y-94844770D01*
X205620952Y-94892389D01*
X205716190Y-94940008D01*
X206001904Y-94940008D01*
X206097142Y-94892389D01*
X206144761Y-94844770D01*
X206192380Y-94749531D01*
X206192380Y-94559055D01*
X206144761Y-94463817D01*
X206144761Y-95749531D02*
X206192380Y-95654293D01*
X206192380Y-95463817D01*
X206144761Y-95368579D01*
X206049523Y-95320960D01*
X205668571Y-95320960D01*
X205573333Y-95368579D01*
X205525714Y-95463817D01*
X205525714Y-95654293D01*
X205573333Y-95749531D01*
X205668571Y-95797151D01*
X205763809Y-95797151D01*
X205859047Y-95320960D01*
X210002380Y-91011428D02*
X210002380Y-90440000D01*
X210002380Y-90725714D02*
X209002380Y-90725714D01*
X209145238Y-90630476D01*
X209240476Y-90535238D01*
X209288095Y-90440000D01*
X209907142Y-91440000D02*
X209954761Y-91487619D01*
X210002380Y-91440000D01*
X209954761Y-91392380D01*
X209907142Y-91440000D01*
X210002380Y-91440000D01*
X210002380Y-92440000D02*
X210002380Y-91868571D01*
X210002380Y-92154285D02*
X209002380Y-92154285D01*
X209145238Y-92059047D01*
X209240476Y-91963809D01*
X209288095Y-91868571D01*
%TO.C,RN1*%
X162812380Y-76769523D02*
X162336190Y-76436190D01*
X162812380Y-76198095D02*
X161812380Y-76198095D01*
X161812380Y-76579047D01*
X161860000Y-76674285D01*
X161907619Y-76721904D01*
X162002857Y-76769523D01*
X162145714Y-76769523D01*
X162240952Y-76721904D01*
X162288571Y-76674285D01*
X162336190Y-76579047D01*
X162336190Y-76198095D01*
X162812380Y-77198095D02*
X161812380Y-77198095D01*
X162812380Y-77769523D01*
X161812380Y-77769523D01*
X162812380Y-78769523D02*
X162812380Y-78198095D01*
X162812380Y-78483809D02*
X161812380Y-78483809D01*
X161955238Y-78388571D01*
X162050476Y-78293333D01*
X162098095Y-78198095D01*
%TO.C,J0*%
X94864880Y-106346666D02*
X95579166Y-106346666D01*
X95722023Y-106299047D01*
X95817261Y-106203809D01*
X95864880Y-106060952D01*
X95864880Y-105965714D01*
X94864880Y-107013333D02*
X94864880Y-107108571D01*
X94912500Y-107203809D01*
X94960119Y-107251428D01*
X95055357Y-107299047D01*
X95245833Y-107346666D01*
X95483928Y-107346666D01*
X95674404Y-107299047D01*
X95769642Y-107251428D01*
X95817261Y-107203809D01*
X95864880Y-107108571D01*
X95864880Y-107013333D01*
X95817261Y-106918095D01*
X95769642Y-106870476D01*
X95674404Y-106822857D01*
X95483928Y-106775238D01*
X95245833Y-106775238D01*
X95055357Y-106822857D01*
X94960119Y-106870476D01*
X94912500Y-106918095D01*
X94864880Y-107013333D01*
%TO.C,U1*%
X139352380Y-100848095D02*
X140161904Y-100848095D01*
X140257142Y-100895714D01*
X140304761Y-100943333D01*
X140352380Y-101038571D01*
X140352380Y-101229047D01*
X140304761Y-101324285D01*
X140257142Y-101371904D01*
X140161904Y-101419523D01*
X139352380Y-101419523D01*
X140352380Y-102419523D02*
X140352380Y-101848095D01*
X140352380Y-102133809D02*
X139352380Y-102133809D01*
X139495238Y-102038571D01*
X139590476Y-101943333D01*
X139638095Y-101848095D01*
%TO.C,Q2*%
X177895238Y-87342619D02*
X177990476Y-87295000D01*
X178085714Y-87199761D01*
X178228571Y-87056904D01*
X178323809Y-87009285D01*
X178419047Y-87009285D01*
X178371428Y-87247380D02*
X178466666Y-87199761D01*
X178561904Y-87104523D01*
X178609523Y-86914047D01*
X178609523Y-86580714D01*
X178561904Y-86390238D01*
X178466666Y-86295000D01*
X178371428Y-86247380D01*
X178180952Y-86247380D01*
X178085714Y-86295000D01*
X177990476Y-86390238D01*
X177942857Y-86580714D01*
X177942857Y-86914047D01*
X177990476Y-87104523D01*
X178085714Y-87199761D01*
X178180952Y-87247380D01*
X178371428Y-87247380D01*
X177561904Y-86342619D02*
X177514285Y-86295000D01*
X177419047Y-86247380D01*
X177180952Y-86247380D01*
X177085714Y-86295000D01*
X177038095Y-86342619D01*
X176990476Y-86437857D01*
X176990476Y-86533095D01*
X177038095Y-86675952D01*
X177609523Y-87247380D01*
X176990476Y-87247380D01*
%TO.C,Q0*%
X177895238Y-138397619D02*
X177990476Y-138350000D01*
X178085714Y-138254761D01*
X178228571Y-138111904D01*
X178323809Y-138064285D01*
X178419047Y-138064285D01*
X178371428Y-138302380D02*
X178466666Y-138254761D01*
X178561904Y-138159523D01*
X178609523Y-137969047D01*
X178609523Y-137635714D01*
X178561904Y-137445238D01*
X178466666Y-137350000D01*
X178371428Y-137302380D01*
X178180952Y-137302380D01*
X178085714Y-137350000D01*
X177990476Y-137445238D01*
X177942857Y-137635714D01*
X177942857Y-137969047D01*
X177990476Y-138159523D01*
X178085714Y-138254761D01*
X178180952Y-138302380D01*
X178371428Y-138302380D01*
X177323809Y-137302380D02*
X177228571Y-137302380D01*
X177133333Y-137350000D01*
X177085714Y-137397619D01*
X177038095Y-137492857D01*
X176990476Y-137683333D01*
X176990476Y-137921428D01*
X177038095Y-138111904D01*
X177085714Y-138207142D01*
X177133333Y-138254761D01*
X177228571Y-138302380D01*
X177323809Y-138302380D01*
X177419047Y-138254761D01*
X177466666Y-138207142D01*
X177514285Y-138111904D01*
X177561904Y-137921428D01*
X177561904Y-137683333D01*
X177514285Y-137492857D01*
X177466666Y-137397619D01*
X177419047Y-137350000D01*
X177323809Y-137302380D01*
%TO.C,U0*%
X113952380Y-100848095D02*
X114761904Y-100848095D01*
X114857142Y-100895714D01*
X114904761Y-100943333D01*
X114952380Y-101038571D01*
X114952380Y-101229047D01*
X114904761Y-101324285D01*
X114857142Y-101371904D01*
X114761904Y-101419523D01*
X113952380Y-101419523D01*
X113952380Y-102086190D02*
X113952380Y-102181428D01*
X114000000Y-102276666D01*
X114047619Y-102324285D01*
X114142857Y-102371904D01*
X114333333Y-102419523D01*
X114571428Y-102419523D01*
X114761904Y-102371904D01*
X114857142Y-102324285D01*
X114904761Y-102276666D01*
X114952380Y-102181428D01*
X114952380Y-102086190D01*
X114904761Y-101990952D01*
X114857142Y-101943333D01*
X114761904Y-101895714D01*
X114571428Y-101848095D01*
X114333333Y-101848095D01*
X114142857Y-101895714D01*
X114047619Y-101943333D01*
X114000000Y-101990952D01*
X113952380Y-102086190D01*
%TO.C,T0*%
X99060000Y-97282000D02*
X101600000Y-97282000D01*
X98425000Y-87630000D02*
X95250000Y-87630000D01*
X104140000Y-63500000D02*
X96520000Y-63500000D01*
X101600000Y-92710000D02*
X99060000Y-92710000D01*
X95250000Y-86995000D02*
X95250000Y-76835000D01*
X91440000Y-100330000D02*
X109220000Y-100330000D01*
X95250000Y-90170000D02*
X98425000Y-90170000D01*
X96520000Y-69850000D02*
X96520000Y-64770000D01*
X104140000Y-69850000D02*
X96520000Y-69850000D01*
X99060000Y-92710000D02*
X99060000Y-97282000D01*
X109220000Y-64770000D02*
X91440000Y-64770000D01*
X104140000Y-64770000D02*
X104140000Y-63500000D01*
X101600000Y-97282000D02*
X101600000Y-92710000D01*
X95250000Y-87630000D02*
X95250000Y-90170000D01*
X91440000Y-64770000D02*
X91440000Y-100330000D01*
X95250000Y-76835000D02*
X105410000Y-76835000D01*
X109220000Y-100330000D02*
X109220000Y-64770000D01*
X105410000Y-86995000D02*
X95250000Y-86995000D01*
X104140000Y-69850000D02*
X104140000Y-64770000D01*
X98425000Y-90170000D02*
X98425000Y-87630000D01*
X96520000Y-63500000D02*
X96520000Y-64770000D01*
X105410000Y-86995000D02*
X105410000Y-76835000D01*
D12*
X99822000Y-80137000D02*
X99568000Y-80391000D01*
X99568000Y-80391000D02*
X99949000Y-80645000D01*
X99949000Y-80645000D02*
X100203000Y-80391000D01*
X100203000Y-80391000D02*
X99822000Y-80137000D01*
G36*
X100203000Y-80391000D02*
G01*
X99949000Y-80645000D01*
X99568000Y-80391000D01*
X99822000Y-80137000D01*
X100203000Y-80391000D01*
G37*
X100203000Y-80391000D02*
X99949000Y-80645000D01*
X99568000Y-80391000D01*
X99822000Y-80137000D01*
X100203000Y-80391000D01*
X99695000Y-79375000D02*
X99441000Y-79629000D01*
X99441000Y-79629000D02*
X99822000Y-79883000D01*
X99822000Y-79883000D02*
X100076000Y-79629000D01*
X100076000Y-79629000D02*
X99695000Y-79375000D01*
G36*
X100076000Y-79629000D02*
G01*
X99822000Y-79883000D01*
X99441000Y-79629000D01*
X99695000Y-79375000D01*
X100076000Y-79629000D01*
G37*
X100076000Y-79629000D02*
X99822000Y-79883000D01*
X99441000Y-79629000D01*
X99695000Y-79375000D01*
X100076000Y-79629000D01*
X100457000Y-78613000D02*
X100203000Y-78867000D01*
X100203000Y-78867000D02*
X100584000Y-79121000D01*
X100584000Y-79121000D02*
X100838000Y-78867000D01*
X100838000Y-78867000D02*
X100457000Y-78613000D01*
G36*
X100838000Y-78867000D02*
G01*
X100584000Y-79121000D01*
X100203000Y-78867000D01*
X100457000Y-78613000D01*
X100838000Y-78867000D01*
G37*
X100838000Y-78867000D02*
X100584000Y-79121000D01*
X100203000Y-78867000D01*
X100457000Y-78613000D01*
X100838000Y-78867000D01*
X100838000Y-80899000D02*
X100584000Y-81153000D01*
X100584000Y-81153000D02*
X100965000Y-81407000D01*
X100965000Y-81407000D02*
X101219000Y-81153000D01*
X101219000Y-81153000D02*
X100838000Y-80899000D01*
G36*
X101219000Y-81153000D02*
G01*
X100965000Y-81407000D01*
X100584000Y-81153000D01*
X100838000Y-80899000D01*
X101219000Y-81153000D01*
G37*
X101219000Y-81153000D02*
X100965000Y-81407000D01*
X100584000Y-81153000D01*
X100838000Y-80899000D01*
X101219000Y-81153000D01*
X100076000Y-78994000D02*
X99822000Y-79248000D01*
X99822000Y-79248000D02*
X100203000Y-79502000D01*
X100203000Y-79502000D02*
X100457000Y-79248000D01*
X100457000Y-79248000D02*
X100076000Y-78994000D01*
G36*
X100457000Y-79248000D02*
G01*
X100203000Y-79502000D01*
X99822000Y-79248000D01*
X100076000Y-78994000D01*
X100457000Y-79248000D01*
G37*
X100457000Y-79248000D02*
X100203000Y-79502000D01*
X99822000Y-79248000D01*
X100076000Y-78994000D01*
X100457000Y-79248000D01*
X100330000Y-80518000D02*
X100076000Y-80772000D01*
X100076000Y-80772000D02*
X100457000Y-81026000D01*
X100457000Y-81026000D02*
X100711000Y-80772000D01*
X100711000Y-80772000D02*
X100330000Y-80518000D01*
G36*
X100711000Y-80772000D02*
G01*
X100457000Y-81026000D01*
X100076000Y-80772000D01*
X100330000Y-80518000D01*
X100711000Y-80772000D01*
G37*
X100711000Y-80772000D02*
X100457000Y-81026000D01*
X100076000Y-80772000D01*
X100330000Y-80518000D01*
X100711000Y-80772000D01*
X100711000Y-80137000D02*
X100457000Y-80391000D01*
X100457000Y-80391000D02*
X100838000Y-80645000D01*
X100838000Y-80645000D02*
X101092000Y-80391000D01*
X101092000Y-80391000D02*
X100711000Y-80137000D01*
G36*
X101092000Y-80391000D02*
G01*
X100838000Y-80645000D01*
X100457000Y-80391000D01*
X100711000Y-80137000D01*
X101092000Y-80391000D01*
G37*
X101092000Y-80391000D02*
X100838000Y-80645000D01*
X100457000Y-80391000D01*
X100711000Y-80137000D01*
X101092000Y-80391000D01*
X100203000Y-79756000D02*
X99949000Y-80010000D01*
X99949000Y-80010000D02*
X100330000Y-80264000D01*
X100330000Y-80264000D02*
X100584000Y-80010000D01*
X100584000Y-80010000D02*
X100203000Y-79756000D01*
G36*
X100584000Y-80010000D02*
G01*
X100330000Y-80264000D01*
X99949000Y-80010000D01*
X100203000Y-79756000D01*
X100584000Y-80010000D01*
G37*
X100584000Y-80010000D02*
X100330000Y-80264000D01*
X99949000Y-80010000D01*
X100203000Y-79756000D01*
X100584000Y-80010000D01*
D13*
%TO.C,Q3*%
X175330000Y-74300000D02*
X172500000Y-74300000D01*
X176830000Y-74570000D02*
X175330000Y-74570000D01*
X175330000Y-74570000D02*
X175330000Y-74300000D01*
X176830000Y-67670000D02*
X175330000Y-67670000D01*
X175330000Y-67670000D02*
X175330000Y-67940000D01*
X175330000Y-67940000D02*
X174230000Y-67940000D01*
%TO.C,U2*%
X166240000Y-106750000D02*
X166240000Y-96470000D01*
X166300000Y-104260000D02*
X166300000Y-102610000D01*
X186800000Y-96470000D02*
X186800000Y-106750000D01*
X186740000Y-104260000D02*
X166300000Y-104260000D01*
X166240000Y-96470000D02*
X186800000Y-96470000D01*
X186800000Y-106750000D02*
X166240000Y-106750000D01*
X186740000Y-98960000D02*
X186740000Y-104260000D01*
X166300000Y-98960000D02*
X186740000Y-98960000D01*
X166300000Y-100610000D02*
X166300000Y-98960000D01*
X166300000Y-102610000D02*
G75*
G03*
X166300000Y-100610000I0J1000000D01*
G01*
%TO.C,Q1*%
X176830000Y-124100000D02*
X175330000Y-124100000D01*
X175330000Y-123830000D02*
X172500000Y-123830000D01*
X175330000Y-124100000D02*
X175330000Y-123830000D01*
X176830000Y-117200000D02*
X175330000Y-117200000D01*
X175330000Y-117470000D02*
X174230000Y-117470000D01*
X175330000Y-117200000D02*
X175330000Y-117470000D01*
%TO.C,RN2*%
X161360000Y-128370000D02*
X140920000Y-128370000D01*
X161420000Y-120580000D02*
X161420000Y-130860000D01*
X161360000Y-123070000D02*
X161360000Y-124720000D01*
X140860000Y-130860000D02*
X140860000Y-120580000D01*
X140860000Y-120580000D02*
X161420000Y-120580000D01*
X140920000Y-128370000D02*
X140920000Y-123070000D01*
X140920000Y-123070000D02*
X161360000Y-123070000D01*
X161360000Y-126720000D02*
X161360000Y-128370000D01*
X161420000Y-130860000D02*
X140860000Y-130860000D01*
X161360000Y-124720000D02*
G75*
G03*
X161360000Y-126720000I0J-1000000D01*
G01*
%TO.C,REF\u002A\u002A*%
X207010000Y-107950000D02*
X208280000Y-109220000D01*
X208280000Y-109220000D02*
X209550000Y-110490000D01*
X199390000Y-114300000D02*
X199390000Y-115570000D01*
X199390000Y-100330000D02*
X200660000Y-101600000D01*
X198120000Y-100330000D02*
X213360000Y-115570000D01*
X209550000Y-110490000D02*
X210820000Y-111760000D01*
X203200000Y-110490000D02*
X201930000Y-111760000D01*
X214630000Y-114300000D02*
X213360000Y-115570000D01*
X210820000Y-102870000D02*
X209550000Y-104140000D01*
X213360000Y-99060000D02*
X198120000Y-114300000D01*
X208280000Y-105410000D02*
X207010000Y-106680000D01*
X199390000Y-115570000D02*
X198120000Y-114300000D01*
X201930000Y-111760000D02*
X200660000Y-113030000D01*
X212090000Y-101600000D02*
X210820000Y-102870000D01*
X199390000Y-99060000D02*
X214630000Y-114300000D01*
X213360000Y-114300000D02*
X214630000Y-114300000D01*
X200660000Y-113030000D02*
X199390000Y-114300000D01*
X204470000Y-105410000D02*
X205740000Y-106680000D01*
X198120000Y-100330000D02*
X199390000Y-100330000D01*
X205740000Y-107950000D02*
X204470000Y-109220000D01*
X199390000Y-99060000D02*
X198120000Y-100330000D01*
X198120000Y-114300000D02*
X199390000Y-114300000D01*
X199390000Y-115570000D02*
X214630000Y-100330000D01*
X201930000Y-102870000D02*
X203200000Y-104140000D01*
X213360000Y-99060000D02*
X213360000Y-100330000D01*
X213360000Y-100330000D02*
X214630000Y-100330000D01*
X207010000Y-107950000D02*
X205740000Y-106680000D01*
X210820000Y-111760000D02*
X212090000Y-113030000D01*
X214630000Y-100330000D02*
X213360000Y-99060000D01*
X209550000Y-104140000D02*
X208280000Y-105410000D01*
X207010000Y-106680000D02*
X205740000Y-107950000D01*
X203200000Y-104140000D02*
X204470000Y-105410000D01*
X204470000Y-109220000D02*
X203200000Y-110490000D01*
X200660000Y-101600000D02*
X201930000Y-102870000D01*
X212090000Y-113030000D02*
X213360000Y-114300000D01*
X213360000Y-100330000D02*
X212090000Y-101600000D01*
X213360000Y-115570000D02*
X213360000Y-114300000D01*
X199390000Y-100330000D02*
X199390000Y-99060000D01*
D12*
X199390000Y-86360000D02*
X199390000Y-87630000D01*
X199390000Y-87630000D02*
X198120000Y-87630000D01*
X198120000Y-87630000D02*
X199390000Y-86360000D01*
G36*
X199390000Y-87630000D02*
G01*
X198120000Y-87630000D01*
X199390000Y-86360000D01*
X199390000Y-87630000D01*
G37*
X199390000Y-87630000D02*
X198120000Y-87630000D01*
X199390000Y-86360000D01*
X199390000Y-87630000D01*
X199390000Y-99060000D02*
X199390000Y-97790000D01*
X199390000Y-97790000D02*
X203200000Y-97790000D01*
X203200000Y-97790000D02*
X203200000Y-99060000D01*
X203200000Y-99060000D02*
X199390000Y-99060000D01*
G36*
X203200000Y-99060000D02*
G01*
X199390000Y-99060000D01*
X199390000Y-97790000D01*
X203200000Y-97790000D01*
X203200000Y-99060000D01*
G37*
X203200000Y-99060000D02*
X199390000Y-99060000D01*
X199390000Y-97790000D01*
X203200000Y-97790000D01*
X203200000Y-99060000D01*
X213360000Y-87630000D02*
X213360000Y-86360000D01*
X213360000Y-86360000D02*
X214630000Y-87630000D01*
X214630000Y-87630000D02*
X213360000Y-87630000D01*
G36*
X214630000Y-87630000D02*
G01*
X213360000Y-87630000D01*
X213360000Y-86360000D01*
X214630000Y-87630000D01*
G37*
X214630000Y-87630000D02*
X213360000Y-87630000D01*
X213360000Y-86360000D01*
X214630000Y-87630000D01*
X199390000Y-87630000D02*
X199390000Y-97790000D01*
X199390000Y-97790000D02*
X198120000Y-97790000D01*
X198120000Y-97790000D02*
X198120000Y-87630000D01*
X198120000Y-87630000D02*
X199390000Y-87630000D01*
G36*
X199390000Y-97790000D02*
G01*
X198120000Y-97790000D01*
X198120000Y-87630000D01*
X199390000Y-87630000D01*
X199390000Y-97790000D01*
G37*
X199390000Y-97790000D02*
X198120000Y-97790000D01*
X198120000Y-87630000D01*
X199390000Y-87630000D01*
X199390000Y-97790000D01*
X213360000Y-97790000D02*
X213360000Y-87630000D01*
X213360000Y-87630000D02*
X214630000Y-87630000D01*
X214630000Y-87630000D02*
X214630000Y-97790000D01*
X214630000Y-97790000D02*
X213360000Y-97790000D01*
G36*
X214630000Y-97790000D02*
G01*
X213360000Y-97790000D01*
X213360000Y-87630000D01*
X214630000Y-87630000D01*
X214630000Y-97790000D01*
G37*
X214630000Y-97790000D02*
X213360000Y-97790000D01*
X213360000Y-87630000D01*
X214630000Y-87630000D01*
X214630000Y-97790000D01*
X213360000Y-99060000D02*
X213360000Y-97790000D01*
X213360000Y-97790000D02*
X214630000Y-97790000D01*
X214630000Y-97790000D02*
X213360000Y-99060000D01*
G36*
X213360000Y-99060000D02*
G01*
X213360000Y-97790000D01*
X214630000Y-97790000D01*
X213360000Y-99060000D01*
G37*
X213360000Y-99060000D02*
X213360000Y-97790000D01*
X214630000Y-97790000D01*
X213360000Y-99060000D01*
X213360000Y-99060000D02*
X203200000Y-99060000D01*
X203200000Y-99060000D02*
X203200000Y-97790000D01*
X203200000Y-97790000D02*
X213360000Y-97790000D01*
X213360000Y-97790000D02*
X213360000Y-99060000D01*
G36*
X213360000Y-99060000D02*
G01*
X203200000Y-99060000D01*
X203200000Y-97790000D01*
X213360000Y-97790000D01*
X213360000Y-99060000D01*
G37*
X213360000Y-99060000D02*
X203200000Y-99060000D01*
X203200000Y-97790000D01*
X213360000Y-97790000D01*
X213360000Y-99060000D01*
X199390000Y-97790000D02*
X199390000Y-99060000D01*
X199390000Y-99060000D02*
X198120000Y-97790000D01*
X198120000Y-97790000D02*
X199390000Y-97790000D01*
G36*
X199390000Y-99060000D02*
G01*
X198120000Y-97790000D01*
X199390000Y-97790000D01*
X199390000Y-99060000D01*
G37*
X199390000Y-99060000D02*
X198120000Y-97790000D01*
X199390000Y-97790000D01*
X199390000Y-99060000D01*
D13*
%TO.C,RN1*%
X161420000Y-82600000D02*
X140860000Y-82600000D01*
X140920000Y-80110000D02*
X140920000Y-74810000D01*
X161360000Y-80110000D02*
X140920000Y-80110000D01*
X161360000Y-78460000D02*
X161360000Y-80110000D01*
X140860000Y-82600000D02*
X140860000Y-72320000D01*
X161420000Y-72320000D02*
X161420000Y-82600000D01*
X140920000Y-74810000D02*
X161360000Y-74810000D01*
X161360000Y-74810000D02*
X161360000Y-76460000D01*
X140860000Y-72320000D02*
X161420000Y-72320000D01*
X161360000Y-76460000D02*
G75*
G03*
X161360000Y-78460000I0J-1000000D01*
G01*
%TO.C,J0*%
X96502500Y-106680000D02*
X96502500Y-102920000D01*
X103122500Y-110440000D02*
X103122500Y-106680000D01*
X104512500Y-104200000D02*
X103512500Y-104700000D01*
X96502500Y-106680000D02*
X96502500Y-110440000D01*
X103512500Y-104700000D02*
X104512500Y-105200000D01*
X96502500Y-110440000D02*
X103122500Y-110440000D01*
X104512500Y-105200000D02*
X104512500Y-104200000D01*
X103122500Y-102920000D02*
X103122500Y-106680000D01*
X96502500Y-102920000D02*
X103122500Y-102920000D01*
%TO.C,U1*%
X140840000Y-96470000D02*
X161400000Y-96470000D01*
X140900000Y-104260000D02*
X140900000Y-102610000D01*
X161340000Y-104260000D02*
X140900000Y-104260000D01*
X161400000Y-106750000D02*
X140840000Y-106750000D01*
X140900000Y-100610000D02*
X140900000Y-98960000D01*
X161400000Y-96470000D02*
X161400000Y-106750000D01*
X140840000Y-106750000D02*
X140840000Y-96470000D01*
X161340000Y-98960000D02*
X161340000Y-104260000D01*
X140900000Y-98960000D02*
X161340000Y-98960000D01*
X140900000Y-102610000D02*
G75*
G03*
X140900000Y-100610000I0J1000000D01*
G01*
%TO.C,Q2*%
X176830000Y-78845000D02*
X175330000Y-78845000D01*
X175330000Y-79115000D02*
X174230000Y-79115000D01*
X176830000Y-85745000D02*
X175330000Y-85745000D01*
X175330000Y-78845000D02*
X175330000Y-79115000D01*
X175330000Y-85475000D02*
X172500000Y-85475000D01*
X175330000Y-85745000D02*
X175330000Y-85475000D01*
%TO.C,Q0*%
X175330000Y-129900000D02*
X175330000Y-130170000D01*
X175330000Y-130170000D02*
X174230000Y-130170000D01*
X176830000Y-136800000D02*
X175330000Y-136800000D01*
X175330000Y-136800000D02*
X175330000Y-136530000D01*
X176830000Y-129900000D02*
X175330000Y-129900000D01*
X175330000Y-136530000D02*
X172500000Y-136530000D01*
%TO.C,U0*%
X115440000Y-106750000D02*
X115440000Y-96470000D01*
X115440000Y-96470000D02*
X136000000Y-96470000D01*
X136000000Y-106750000D02*
X115440000Y-106750000D01*
X115500000Y-104260000D02*
X115500000Y-102610000D01*
X135940000Y-104260000D02*
X115500000Y-104260000D01*
X115500000Y-100610000D02*
X115500000Y-98960000D01*
X136000000Y-96470000D02*
X136000000Y-106750000D01*
X135940000Y-98960000D02*
X135940000Y-104260000D01*
X115500000Y-98960000D02*
X135940000Y-98960000D01*
X115500000Y-102610000D02*
G75*
G03*
X115500000Y-100610000I0J1000000D01*
G01*
%TD*%
M02*
